<?xml version="1.0" standalone="no"?>
<svg version="1.0" xmlns="http://www.w3.org/2000/svg" width="1306.000000pt" height="556.000000pt"
    viewBox="0 0 1306.000000 556.000000" preserveAspectRatio="xMidYMid meet">

    <g transform="translate(0.000000,556.000000) scale(0.100000,-0.100000)" fill="#000000"
        stroke="none">
        <path d="M710 2536 l0 -2176 23 5 c21 5 269 25 552 45 72 5 182 13 245 19 63
5 180 15 260 21 80 6 224 17 320 25 96 8 240 19 320 25 80 6 224 17 320 25 96
8 240 19 320 25 80 6 197 15 260 21 63 6 174 14 245 19 72 5 216 16 320 25
105 9 249 20 320 25 72 5 216 16 320 25 105 9 249 20 320 25 72 5 182 14 245
19 63 6 180 15 260 21 80 6 226 18 325 26 99 7 239 18 310 24 72 5 216 17 320
25 105 8 251 20 325 26 74 5 153 12 175 14 22 2 59 4 83 4 l42 1 0 270 0 270
-70 0 -70 0 0 -204 0 -204 -82 -6 c-46 -4 -114 -9 -153 -12 -38 -2 -90 -7
-115 -9 -25 -3 -106 -10 -180 -15 -74 -5 -220 -16 -325 -25 -104 -9 -248 -20
-320 -25 -71 -5 -215 -16 -320 -25 -104 -9 -248 -20 -320 -25 -71 -5 -184 -14
-250 -19 -66 -6 -183 -15 -260 -21 -77 -6 -219 -17 -315 -25 -96 -8 -240 -19
-320 -25 -80 -6 -197 -15 -260 -21 -63 -6 -173 -14 -245 -19 -71 -5 -215 -16
-320 -25 -104 -9 -248 -20 -320 -25 -71 -5 -213 -17 -315 -25 -102 -9 -246
-20 -320 -25 -74 -5 -184 -14 -245 -19 -60 -5 -177 -14 -260 -21 -82 -6 -199
-15 -260 -20 -60 -6 -177 -15 -260 -20 -82 -6 -158 -13 -168 -16 -16 -5 -17
96 -17 2021 l0 2027 38 -6 c20 -4 100 -11 177 -16 77 -5 226 -17 330 -25 105
-8 251 -20 325 -25 74 -5 151 -12 170 -14 19 -3 80 -8 135 -11 55 -3 116 -8
135 -10 19 -3 98 -9 175 -15 77 -5 226 -17 330 -25 105 -9 249 -20 320 -25 72
-5 182 -13 245 -19 63 -5 180 -15 260 -21 80 -6 224 -17 320 -25 96 -8 240
-19 320 -25 80 -6 228 -18 330 -26 102 -8 241 -19 310 -24 69 -6 184 -15 255
-21 72 -5 186 -14 255 -19 69 -5 211 -16 315 -25 105 -9 253 -20 330 -25 77
-5 158 -12 180 -15 37 -5 116 -11 455 -35 74 -5 159 -13 188 -16 l52 -6 0
-189 0 -189 70 0 70 0 0 254 0 254 -72 6 c-40 3 -156 12 -258 20 -102 9 -250
20 -330 26 -80 6 -226 18 -325 26 -99 8 -238 19 -310 24 -71 6 -215 17 -320
25 -104 8 -248 20 -320 25 -71 6 -215 17 -320 25 -104 8 -246 20 -315 25 -69
6 -183 15 -255 21 -71 5 -186 14 -255 19 -69 5 -210 16 -315 25 -104 8 -248
20 -320 25 -71 5 -186 14 -255 19 -69 6 -183 15 -255 21 -71 6 -211 17 -310
24 -99 8 -245 20 -325 26 -80 6 -228 18 -330 26 -102 8 -241 19 -310 24 -69 6
-183 15 -255 20 -71 6 -191 15 -265 20 -74 5 -152 12 -172 16 l-38 6 0 -2176z" />
        <path d="M6305 3544 c-211 -32 -388 -138 -453 -273 -22 -48 -26 -69 -27 -146
0 -73 4 -97 22 -130 43 -81 97 -123 208 -160 241 -82 266 -96 291 -161 15 -40
15 -47 0 -94 -28 -86 -81 -130 -156 -130 -76 0 -129 86 -114 186 l6 44 -165 0
-165 0 -11 -32 c-24 -76 -51 -211 -46 -227 7 -22 72 -53 171 -82 68 -19 103
-22 254 -22 318 -1 497 67 587 220 72 123 70 301 -6 403 -53 73 -100 97 -273
141 -196 50 -228 74 -228 166 0 64 28 115 81 149 56 35 110 33 143 -6 28 -33
41 -99 33 -161 l-5 -39 153 0 c85 0 156 3 158 8 6 8 67 239 67 250 0 12 -71
50 -137 74 -47 17 -86 21 -208 23 -82 2 -163 1 -180 -1z" />
        <path d="M9090 3544 c-213 -38 -392 -174 -478 -365 -56 -124 -67 -183 -67
-379 0 -179 1 -187 28 -249 75 -178 192 -234 482 -234 246 1 356 38 479 162
112 114 195 309 217 511 30 274 -69 471 -270 537 -45 15 -332 27 -391 17z
m202 -125 c34 -18 48 -70 48 -181 0 -266 -102 -625 -211 -743 -67 -72 -129
-72 -164 1 -15 31 -16 58 -12 183 10 330 135 682 261 737 38 16 52 17 78 3z" />
        <path d="M1243 3518 c3 -13 8 -70 12 -128 3 -58 12 -202 20 -320 27 -393 35
-514 41 -628 l6 -112 230 2 230 3 141 339 142 340 7 -70 c10 -104 28 -410 28
-485 0 -37 3 -81 6 -98 l7 -31 211 0 211 0 48 123 c27 67 59 149 72 182 13 33
35 89 49 125 14 36 41 106 60 155 100 260 128 332 135 350 5 11 16 40 26 65
10 25 21 54 25 65 4 11 19 48 34 83 l25 62 -98 0 c-70 0 -100 -4 -104 -12 -3
-7 -43 -112 -90 -233 -188 -484 -218 -560 -228 -569 -5 -6 -9 21 -10 75 0 46
-2 93 -4 104 -3 20 -19 263 -30 485 -4 63 -9 123 -11 133 -5 15 -23 17 -188
17 l-182 0 -33 -82 c-54 -137 -98 -250 -155 -400 -13 -35 -36 -94 -51 -133
-15 -38 -34 -88 -42 -110 -40 -104 -39 -103 -46 -13 -4 46 -9 164 -13 263 -3
99 -7 191 -9 205 -2 14 -4 80 -4 148 l-1 122 -236 0 -236 0 5 -22z" />
        <path d="M3156 3518 c-14 -68 -39 -188 -46 -223 -5 -22 -16 -71 -24 -110 -24
-108 -57 -266 -67 -310 -4 -22 -22 -105 -39 -185 -40 -187 -70 -339 -70 -351
0 -6 79 -8 202 -7 l201 3 18 85 c10 47 32 150 49 230 17 80 42 197 56 260 13
63 31 147 39 185 9 39 26 122 40 185 14 63 31 146 40 185 8 38 15 71 15 72 0
2 -92 3 -205 3 -204 0 -205 0 -209 -22z" />
        <path d="M3786 3528 c-5 -19 -22 -96 -51 -238 -14 -69 -32 -154 -40 -190 -18
-79 -54 -250 -66 -305 -52 -254 -90 -433 -95 -447 -5 -17 9 -18 200 -18 113 0
206 1 206 3 0 1 14 67 31 147 17 80 35 163 39 185 4 22 15 73 24 113 9 40 16
75 16 78 0 2 6 4 13 4 7 0 26 -46 46 -107 18 -60 44 -139 56 -178 12 -38 35
-109 50 -157 l29 -88 208 0 209 0 -6 23 c-4 12 -13 36 -20 52 -19 44 -57 142
-120 305 -30 80 -59 154 -64 165 -7 17 1 24 58 52 112 54 173 135 202 266 21
97 -12 203 -83 262 -80 68 -192 85 -561 85 -214 0 -278 -3 -281 -12z m535
-137 c21 -17 24 -30 27 -100 6 -121 -36 -236 -104 -290 -21 -17 -40 -21 -95
-21 -53 0 -69 3 -69 14 0 8 13 72 30 143 16 70 34 148 39 173 5 25 12 57 15
73 6 26 9 27 70 27 48 0 70 -5 87 -19z" />
        <path d="M5000 3537 c0 -2 -41 -196 -80 -377 -10 -47 -26 -121 -35 -165 -46
-220 -66 -312 -95 -445 -17 -80 -34 -162 -37 -182 l-6 -38 396 0 396 0 10 38
c5 20 12 52 15 70 l6 32 -195 0 c-107 0 -195 2 -195 4 0 2 11 51 24 108 13 56
31 141 41 188 9 47 19 91 21 98 2 9 44 12 164 12 182 0 170 -6 184 93 l7 47
-160 0 c-89 0 -161 3 -161 8 1 4 12 57 26 117 13 61 29 135 35 165 18 90 4 85
211 86 101 1 186 2 190 3 7 1 21 48 32 109 l6 32 -400 0 c-220 0 -400 -1 -400
-3z" />
        <path d="M7440 3488 c-6 -29 -18 -84 -26 -123 -8 -38 -19 -88 -24 -110 -5 -22
-21 -96 -35 -165 -14 -69 -32 -154 -40 -190 -8 -36 -24 -110 -36 -165 -11 -55
-32 -152 -46 -215 -13 -63 -27 -132 -30 -152 l-6 -38 201 0 c182 0 201 2 206
18 3 9 12 51 20 92 9 41 23 107 31 145 9 39 25 114 35 169 11 54 23 102 26
107 3 5 57 9 120 9 l115 0 -6 -47 c-4 -27 -11 -64 -16 -84 -5 -20 -13 -58 -19
-85 -5 -27 -17 -80 -25 -119 -9 -38 -20 -92 -26 -120 -5 -27 -12 -58 -15 -67
-5 -17 9 -18 199 -18 l205 0 12 53 c6 28 25 115 42 192 36 168 72 335 93 430
8 39 22 104 31 145 9 41 24 116 35 165 11 50 24 113 29 140 6 28 13 58 16 68
5 16 -9 17 -201 17 -156 0 -206 -3 -209 -12 -2 -7 -9 -40 -16 -73 -7 -33 -18
-85 -25 -115 -7 -30 -25 -117 -41 -192 l-28 -138 -118 0 c-84 0 -118 3 -118
12 0 6 7 39 15 72 7 34 26 117 40 186 14 69 32 153 40 187 8 34 15 65 15 68 0
3 -92 5 -204 5 l-204 0 -12 -52z" />
        <path d="M10036 3528 c-3 -7 -7 -26 -10 -43 -3 -16 -19 -95 -37 -175 -17 -80
-35 -165 -40 -190 -5 -25 -15 -76 -24 -115 -9 -38 -20 -90 -25 -115 -5 -25
-23 -110 -40 -190 -17 -80 -40 -188 -51 -240 -11 -52 -22 -103 -25 -112 -5
-16 3 -18 79 -18 84 0 85 0 91 28 20 91 56 259 101 472 14 63 32 147 40 185 9
39 19 87 22 108 11 68 20 48 32 -71 6 -64 16 -160 21 -212 5 -52 17 -165 25
-250 9 -85 18 -179 21 -207 l5 -53 128 0 127 0 36 63 c20 34 55 98 79 142 23
44 45 85 49 90 4 6 29 51 55 100 27 50 57 104 66 120 10 17 28 48 39 70 11 22
32 60 46 85 14 25 36 67 50 93 43 84 43 75 -15 -193 -18 -80 -40 -189 -51
-242 -11 -54 -25 -119 -30 -145 -14 -62 -27 -121 -35 -155 l-5 -28 209 0 209
0 7 33 c4 17 13 59 20 92 8 33 26 116 40 185 24 118 45 213 65 305 19 84 40
186 75 350 19 94 39 187 44 208 l9 37 -243 0 -242 0 -33 -62 c-19 -35 -42 -77
-51 -95 -48 -86 -88 -160 -221 -412 -67 -126 -64 -126 -76 -14 -6 54 -18 188
-27 298 -9 110 -19 219 -21 243 l-5 42 -240 0 c-183 0 -241 -3 -243 -12z" />
        <path d="M11650 3531 c0 -8 -36 -186 -65 -316 -8 -38 -22 -101 -30 -140 -25
-120 -62 -295 -90 -425 -15 -69 -31 -145 -36 -170 -5 -25 -13 -63 -18 -85 -6
-22 -11 -46 -11 -52 0 -10 86 -13 399 -13 l399 0 11 63 c6 35 11 67 11 70 0 4
-85 7 -190 7 -149 0 -190 3 -190 13 0 13 28 153 56 282 8 39 17 80 20 93 4 22
6 22 168 22 l165 0 11 58 c6 31 13 63 15 70 3 9 -32 12 -155 12 l-160 0 0 25
c0 22 31 168 63 300 l12 50 193 0 192 0 9 35 c5 19 12 52 16 73 l6 37 -401 0
c-220 0 -400 -4 -400 -9z" />
        <path d="M5970 1995 c0 -20 -6 -27 -31 -32 -46 -9 -87 -55 -95 -109 -15 -105
20 -184 91 -202 23 -6 31 -15 33 -35 3 -21 9 -27 28 -27 19 0 24 5 24 25 0 19
7 28 28 35 47 17 56 25 80 70 48 95 6 227 -79 244 -23 4 -29 11 -29 31 0 20
-5 25 -25 25 -20 0 -25 -5 -25 -25z m0 -190 c0 -133 -3 -141 -47 -110 -68 48
-45 235 29 235 16 0 18 -11 18 -125z m105 99 c22 -23 25 -36 25 -99 0 -66 -2
-73 -29 -99 -52 -50 -61 -34 -61 104 0 114 1 120 20 120 12 0 32 -12 45 -26z" />
        <path d="M1470 1810 l0 -200 25 0 25 0 0 180 0 180 75 0 75 0 0 -180 0 -180
25 0 25 0 0 200 0 200 -125 0 -125 0 0 -200z" />
        <path d="M1820 1810 c0 -193 1 -200 20 -200 18 0 20 7 20 84 l0 84 81 4 c76 3
83 5 105 33 17 22 24 43 24 75 0 87 -47 120 -170 120 l-80 0 0 -200z m189 134
c25 -32 27 -71 5 -102 -13 -19 -24 -22 -85 -22 l-69 0 0 75 0 75 64 0 c58 0
67 -3 85 -26z" />
        <path d="M2187 1978 c-29 -28 -36 -44 -47 -105 -19 -114 11 -224 68 -255 34
-18 105 -15 136 6 46 30 60 71 61 176 0 153 -37 210 -139 210 -37 0 -51 -6
-79 -32z m149 -29 c16 -18 20 -40 22 -135 l4 -114 -30 -30 c-49 -49 -112 -37
-138 25 -17 40 -19 171 -3 212 18 47 39 63 84 63 30 0 47 -6 61 -21z" />
        <path d="M2490 1810 l0 -200 94 0 c109 0 138 15 157 80 15 50 -1 93 -42 112
l-29 14 30 23 c25 18 30 29 30 62 0 81 -43 109 -166 109 l-74 0 0 -200z m180
140 c12 -12 20 -33 20 -55 0 -48 -31 -67 -102 -63 l-53 3 -3 54 c-4 77 -1 81
63 81 42 0 60 -5 75 -20z m17 -176 c18 -25 16 -89 -3 -108 -11 -12 -35 -16
-85 -16 l-69 0 0 68 c0 38 3 72 8 76 4 5 36 6 71 3 47 -4 69 -10 78 -23z" />
        <path d="M2876 1989 c-47 -37 -60 -75 -60 -179 0 -146 36 -202 128 -204 58 -1
92 19 117 70 46 97 33 244 -28 301 -29 28 -42 33 -82 33 -34 0 -56 -6 -75 -21z
m120 -27 c6 -4 19 -21 28 -39 21 -43 22 -192 1 -233 -30 -58 -90 -67 -136 -21
-28 29 -29 32 -29 133 0 81 4 109 17 128 23 35 33 40 73 40 19 0 40 -4 46 -8z" />
        <path d="M3208 1877 c-5 -156 -26 -227 -66 -227 -22 0 -23 -3 -20 -62 3 -55 5
-63 23 -63 16 0 21 8 23 43 l3 42 115 0 114 0 0 -40 c0 -27 5 -43 15 -47 22
-8 27 0 27 44 0 77 -1 83 -22 83 -19 0 -20 8 -22 178 l-3 177 -91 3 -91 3 -5
-134z m142 -67 l0 -160 -69 0 -70 0 16 38 c10 23 18 77 20 147 3 61 6 116 8
123 3 7 22 12 50 12 l45 0 0 -160z" />
        <path d="M3500 1810 l0 -200 25 0 c25 0 25 1 25 90 l0 90 80 0 80 0 0 -90 c0
-83 1 -90 20 -90 19 0 20 7 20 200 0 193 -1 200 -20 200 -19 0 -20 -7 -20 -90
l0 -90 -80 0 -80 0 0 90 c0 89 0 90 -25 90 l-25 0 0 -200z" />
        <path d="M3840 1809 c0 -197 0 -200 21 -197 24 4 29 12 119 188 l69 135 -6
-162 -6 -163 26 0 27 0 0 200 0 200 -24 0 c-14 0 -26 -7 -29 -17 -4 -10 -40
-83 -81 -163 l-75 -145 -1 163 c0 155 -1 162 -20 162 -19 0 -20 -7 -20 -201z" />
        <path d="M4180 1810 c0 -193 1 -200 20 -200 19 0 20 7 20 90 l0 90 38 0 38 0
41 -90 c39 -85 44 -90 72 -90 24 0 31 4 31 20 0 12 -7 20 -18 20 -12 0 -26 20
-46 66 -16 36 -36 72 -44 81 -10 9 -12 17 -5 21 12 8 93 166 93 182 0 5 -9 10
-20 10 -13 0 -25 -11 -34 -32 -7 -18 -26 -59 -41 -90 -26 -56 -29 -58 -66 -58
l-39 0 0 90 c0 83 -1 90 -20 90 -19 0 -20 -7 -20 -200z" />
        <path d="M4850 1810 l0 -200 25 0 c25 0 25 1 25 90 l0 90 40 0 c25 0 40 -5 41
-12 0 -7 17 -47 37 -88 34 -68 40 -75 70 -78 27 -3 32 0 32 17 0 14 -6 21 -18
21 -13 0 -27 19 -47 63 -16 34 -36 70 -43 79 -12 14 -12 21 -3 32 13 15 91
171 91 181 0 3 -9 5 -20 5 -16 0 -30 -20 -63 -90 -42 -89 -42 -89 -79 -90
l-38 0 0 90 c0 89 0 90 -25 90 l-25 0 0 -200z" />
        <path d="M5242 1992 c-37 -29 -54 -73 -59 -157 -6 -95 7 -154 45 -197 24 -26
35 -30 80 -31 89 -1 122 31 141 138 18 100 -8 203 -63 247 -29 24 -113 24
-144 0z m142 -55 c42 -57 31 -249 -18 -282 -33 -24 -83 -19 -111 11 -23 25
-25 34 -25 139 0 99 2 115 21 139 18 23 27 27 67 24 36 -2 49 -9 66 -31z" />
        <path d="M5520 1811 c0 -194 1 -201 20 -201 19 0 20 8 22 168 l3 167 18 -40
c22 -48 50 -111 63 -143 9 -21 14 -14 48 72 22 53 43 96 48 96 4 0 8 -72 8
-160 0 -153 1 -160 20 -160 19 0 20 7 20 201 l0 200 -31 -3 c-30 -3 -34 -8
-64 -88 -18 -47 -36 -85 -40 -85 -5 0 -12 11 -16 25 -4 14 -18 52 -32 85 -22
53 -29 60 -56 63 l-31 3 0 -200z" />
        <path d="M6251 1985 c-39 -33 -54 -82 -55 -175 -1 -138 43 -204 135 -204 96 0
134 58 133 204 0 104 -13 142 -60 179 -39 31 -113 29 -153 -4z m144 -37 c18
-20 20 -38 20 -141 0 -118 0 -119 -28 -143 -36 -30 -78 -31 -113 -1 -24 21
-27 32 -32 99 -9 153 15 208 91 208 32 0 48 -6 62 -22z" />
        <path d="M6550 1810 c0 -193 1 -200 20 -200 18 0 20 7 20 84 l0 84 81 4 c74 3
83 6 105 31 33 39 40 73 23 121 -20 58 -60 76 -166 76 l-83 0 0 -200z m188
144 c17 -11 22 -25 22 -56 0 -63 -20 -78 -102 -78 l-68 0 0 68 c0 38 3 72 7
75 13 14 118 7 141 -9z" />
        <path d="M6850 1990 c0 -17 8 -19 68 -22 l67 -3 3 -177 c2 -170 3 -178 22
-178 19 0 20 7 20 180 l0 180 65 0 c58 0 65 2 65 20 0 19 -7 20 -155 20 -147
0 -155 -1 -155 -20z" />
        <path d="M7317 2003 c-3 -5 -9 -24 -15 -43 -5 -19 -31 -101 -56 -182 -25 -81
-46 -152 -46 -158 0 -5 9 -10 19 -10 14 0 23 14 36 55 l18 55 73 0 73 0 16
-55 c13 -47 19 -55 39 -55 l24 0 -20 63 c-11 34 -24 76 -28 92 -17 58 -58 190
-69 218 -7 19 -18 27 -35 27 -14 0 -27 -3 -29 -7z m59 -129 c33 -119 34 -114
-30 -114 -63 0 -64 3 -42 72 7 24 19 63 26 87 14 52 21 46 46 -45z" />
        <path d="M7900 1810 l0 -200 96 0 97 0 33 36 c27 28 34 44 34 75 0 44 -34 89
-67 89 -14 0 -10 7 15 26 26 21 32 32 32 65 0 81 -42 109 -165 109 l-75 0 0
-200z m180 140 c26 -26 26 -74 0 -100 -17 -17 -31 -20 -78 -18 l-57 3 -3 54
c-4 77 -1 81 63 81 42 0 60 -5 75 -20z m15 -170 c20 -17 20 -94 -1 -114 -11
-12 -35 -16 -85 -16 l-69 0 0 68 c0 38 3 72 8 76 11 12 130 0 147 -14z" />
        <path d="M8540 1990 c0 -18 7 -20 70 -20 l70 0 0 -180 c0 -173 1 -180 20 -180
19 0 20 7 20 180 l0 180 65 0 c58 0 65 2 65 20 0 19 -7 20 -155 20 -148 0
-155 -1 -155 -20z" />
        <path d="M8920 1810 l0 -200 93 0 c98 0 122 10 146 57 27 52 -3 142 -47 143
-13 1 -10 6 10 21 32 24 46 79 29 115 -20 44 -67 64 -153 64 l-78 0 0 -200z
m172 143 c23 -20 24 -80 1 -105 -12 -13 -31 -18 -75 -18 l-58 0 0 70 0 70 57
0 c38 0 62 -5 75 -17z m19 -182 c23 -28 24 -69 3 -99 -13 -19 -24 -22 -85 -22
l-69 0 0 68 c0 38 3 72 8 76 4 4 34 6 66 4 46 -4 63 -9 77 -27z" />
        <path d="M9298 1987 c-42 -34 -58 -85 -58 -180 0 -142 39 -200 135 -200 47 0
60 4 84 27 36 34 51 85 51 171 0 86 -16 140 -53 176 -24 25 -37 29 -80 29 -39
0 -59 -6 -79 -23z m145 -49 c14 -19 21 -48 25 -100 8 -127 -26 -198 -95 -198
-40 0 -77 35 -87 81 -10 49 -7 155 5 186 19 51 39 64 87 61 35 -2 49 -9 65
-30z" />
        <path d="M9590 1810 l0 -200 23 1 c18 0 34 25 97 150 41 83 78 153 83 155 4 3
4 -65 1 -150 l-7 -156 26 0 27 0 0 200 0 200 -22 0 c-23 0 -47 -41 -157 -267
-14 -29 -28 -53 -31 -53 -3 0 -3 72 -2 160 4 157 3 160 -17 160 -21 0 -21 -4
-21 -200z" />
        <path d="M9910 2006 c0 -7 41 -76 81 -136 32 -48 36 -58 25 -75 -119 -188
-117 -185 -94 -185 18 0 35 18 73 80 27 44 54 79 60 77 5 -2 30 -38 54 -80 36
-61 50 -77 68 -77 13 0 23 2 23 4 0 3 -27 48 -61 101 l-60 97 43 69 c24 38 51
83 61 99 l19 30 -24 0 c-18 0 -33 -17 -73 -81 -56 -93 -45 -94 -116 19 -27 43
-45 62 -59 62 -11 0 -20 -2 -20 -4z" />
        <path d="M10610 1810 c0 -193 1 -200 20 -200 18 0 20 7 20 84 l0 84 81 4 c74
3 83 6 105 31 18 22 24 40 24 78 0 92 -38 119 -171 119 l-79 0 0 -200z m190
140 c25 -25 27 -86 3 -112 -13 -14 -31 -18 -85 -18 l-68 0 0 68 c0 38 3 72 7
75 3 4 33 7 65 7 45 0 63 -5 78 -20z" />
        <path d="M10922 2003 c2 -5 12 -26 22 -48 115 -260 113 -255 100 -289 -4 -10
-18 -16 -40 -16 -27 0 -34 -4 -34 -20 0 -31 74 -29 94 3 13 19 146 359 146
372 0 3 -9 5 -19 5 -19 0 -22 -6 -103 -223 -6 -15 -14 -24 -18 -20 -3 4 -28
61 -54 126 -43 105 -51 117 -73 117 -14 0 -23 -3 -21 -7z" />
        <path d="M11280 1810 c0 -193 1 -200 20 -200 19 0 20 7 20 90 l0 90 40 0 c34
0 42 -4 50 -25 22 -57 53 -121 68 -137 22 -26 72 -24 72 2 0 15 -7 20 -25 20
-14 0 -25 4 -25 10 0 5 -15 41 -34 80 l-34 70 31 63 c18 34 40 79 49 100 l18
37 -24 0 c-20 0 -30 -14 -64 -90 l-42 -90 -40 0 -40 0 0 90 c0 83 -1 90 -20
90 -19 0 -20 -7 -20 -200z" />
        <path d="M11686 1918 c-15 -51 -32 -104 -37 -118 -5 -14 -20 -62 -33 -107
l-24 -83 23 0 c18 0 24 9 36 53 l14 52 73 3 73 3 14 -35 c8 -20 15 -45 15 -56
0 -15 7 -20 25 -20 14 0 25 2 25 3 0 4 -47 162 -93 312 -23 75 -26 80 -54 83
-29 3 -29 2 -57 -90z m87 -51 c15 -51 27 -96 27 -100 0 -4 -28 -7 -61 -7 -54
0 -61 2 -56 18 23 72 40 131 44 155 3 15 8 27 12 27 4 0 19 -42 34 -93z" />
        <path d="M11940 2004 c0 -4 25 -46 55 -94 30 -48 55 -92 55 -98 0 -6 -24 -49
-53 -94 -29 -46 -57 -89 -61 -95 -5 -9 0 -13 16 -13 16 0 30 10 43 33 10 17
34 56 53 86 l34 54 51 -87 c41 -71 54 -86 74 -86 16 0 22 4 17 13 -4 6 -31 51
-60 98 -30 47 -54 89 -54 93 0 3 24 43 53 89 30 45 57 88 61 95 5 8 -1 12 -18
12 -20 0 -31 -12 -57 -57 -18 -32 -41 -68 -50 -81 l-18 -24 -37 59 c-20 32
-43 68 -50 81 -13 20 -54 32 -54 16z" />
    </g>
</svg>
